<svg width="148" height="148" viewBox="0 0 148 148" fill="none" xmlns="http://www.w3.org/2000/svg">
<mask id="mask0_213_789" style="mask-type:luminance" maskUnits="userSpaceOnUse" x="0" y="0" width="148" height="148">
<path d="M147.727 68.7836L80.7585 0L0.000135404 78.6276L66.9689 147.411L147.727 68.7836Z" fill="white"/>
</mask>
<g mask="url(#mask0_213_789)">
<path d="M65.447 103.272C63.244 106.78 55.2023 105.695 47.4852 100.848C39.7682 96.0016 35.2982 89.2291 37.5011 85.7214C39.7041 82.2137 47.7459 83.2989 55.4629 88.1455C63.1799 92.992 67.6499 99.7644 65.447 103.272Z" stroke="white" stroke-width="3"/>
<path fill-rule="evenodd" clip-rule="evenodd" d="M53.5167 93.5156L57.8578 93.315C62.8269 93.0452 67.4289 92.6736 71.68 92.1905L75.2323 91.7498C90.2464 89.7329 100.315 86.2338 105.428 81.2558C116.341 70.6301 116.623 53.2189 106.054 42.3642C95.486 31.5095 78.0735 31.3252 67.1598 41.9509C62.0469 46.9289 58.2799 56.9002 55.8623 71.855L55.3269 75.3942C54.503 81.4118 53.9014 87.4541 53.5167 93.5156Z" fill="white"/>
<path d="M72.6861 74.8519C79.6209 81.9747 91.3377 81.8147 98.8561 74.4946C106.375 67.1745 106.848 55.4662 99.9129 48.3434C92.9781 41.2206 81.2613 41.3806 73.7428 48.7007C66.2244 56.0209 65.7512 67.7291 72.6861 74.8519Z" fill="#D42E12"/>
<path fill-rule="evenodd" clip-rule="evenodd" d="M53.5167 93.5156L57.8578 93.315C62.8269 93.0452 67.4289 92.6736 71.68 92.1905L75.2323 91.7498C90.2464 89.7329 100.315 86.2338 105.428 81.2558C116.341 70.6301 116.623 53.2189 106.054 42.3642C95.486 31.5095 78.0735 31.3252 67.1598 41.9509C62.0469 46.9289 58.2799 56.9002 55.8623 71.855L55.3269 75.3942C54.503 81.4118 53.9014 87.4541 53.5167 93.5156Z" stroke="white" stroke-width="3" stroke-linecap="round" stroke-linejoin="round"/>
<path d="M72.6861 74.8519C79.6209 81.9747 91.3377 81.8147 98.8561 74.4946C106.375 67.1745 106.848 55.4662 99.9129 48.3434C92.9781 41.2206 81.2613 41.3806 73.7428 48.7007C66.2244 56.0209 65.7512 67.7291 72.6861 74.8519Z" stroke="white" stroke-width="3" stroke-linecap="round" stroke-linejoin="round"/>
<path d="M99.5866 71.1582C99.5866 71.1582 104.424 78.2173 105.461 79.6629C107.274 82.3014 109.123 84.4413 109.123 84.4413L103.166 90.5251C103.166 90.5251 99.3945 87.2427 97.1551 83.5706C95.0848 80.1758 92.2108 76.3203 92.2108 76.3203L99.5866 71.1582Z" fill="white"/>
<path d="M97.1474 68.5975C98.0624 67.9571 99.3226 68.1866 99.9508 69.11C101.844 71.8927 105.709 77.5492 108.528 81.5139C109.636 83.0725 112.085 85.241 113.851 86.7146C114.86 87.5565 114.851 89.1323 113.807 89.9306L107.605 94.673C106.851 95.2495 105.798 95.2175 105.094 94.581C103.278 92.9391 99.925 89.8008 98.554 87.819C95.8929 83.9724 92.0712 78.6223 90.1613 75.9578C89.5117 75.0516 89.7276 73.7905 90.6411 73.1512L97.1474 68.5975Z" fill="white"/>
<path d="M105.166 67.4271L112.317 61.0149C112.317 61.0149 113.386 66.7688 109.194 73.6739C104.756 82.0586 100.482 83.3742 100.482 83.3742L96.0428 76.552C96.0428 76.552 99.6349 76.167 100.892 74.8254C103.358 72.1948 105.166 67.4271 105.166 67.4271Z" fill="white"/>
<path d="M100.949 74.4878L99.4136 83.703C99.4136 83.703 97.739 84.5954 97.1943 84.854C96.6497 85.1125 95.0365 85.7 95.0365 85.7L82.4804 81.8961C82.4804 81.8961 87.319 81.6119 88.6453 81.4023C89.9716 81.1928 93.4128 80.1689 95.632 79.0179C97.8513 77.867 96.9706 77.7035 98.0156 76.8805C100.401 75.0018 100.949 74.4878 100.949 74.4878Z" fill="white"/>
</g>
</svg>
